<svg xmlns="http://www.w3.org/2000/svg" xmlns:xlink="http://www.w3.org/1999/xlink" width="208" zoomAndPan="magnify" viewBox="0 0 156 183.750001" height="245" preserveAspectRatio="xMidYMid meet" version="1.0"><defs><clipPath id="ccbe51bcaf"><path d="M 5 5.105469 L 154.921875 5.105469 L 154.921875 182.257812 L 5 182.257812 Z M 5 5.105469 " clip-rule="nonzero"/></clipPath></defs><g clip-path="url(#ccbe51bcaf)"><path fill="#560709" d="M 154.644531 44.9375 C 154.21875 61.738281 150.183594 77.402344 143.699219 92.476562 C 134.765625 113.234375 122.125 131.507812 105.808594 147.074219 C 90.003906 162.152344 72.195312 174.207031 51.027344 180.625 C 48.421875 181.417969 45.777344 182.070312 43.035156 182.230469 C 41.417969 182.324219 39.929688 181.980469 39.484375 180.285156 C 39.039062 178.597656 40.484375 177.914062 41.707031 177.292969 C 53.230469 171.488281 63.941406 164.445312 73.980469 156.347656 C 92.433594 141.464844 107.546875 123.773438 119.140625 103.070312 C 127.449219 88.234375 133.304688 72.546875 135.890625 55.710938 C 137.175781 47.324219 137.386719 38.964844 134.472656 30.789062 C 131.722656 23.0625 126.308594 21.855469 120.171875 27.453125 C 113.054688 33.941406 108.96875 42.265625 105.460938 50.976562 C 101.96875 59.648438 99.683594 68.722656 96.59375 77.523438 C 95.269531 81.273438 93.769531 84.933594 90.816406 87.84375 C 84.777344 93.796875 76.976562 94 70.722656 88.238281 C 64.996094 82.972656 60.785156 76.40625 55.605469 70.667969 C 50.457031 64.972656 44.933594 59.753906 37.917969 56.4375 C 33.609375 54.398438 28.988281 53.628906 24.964844 56.757812 C 20.734375 60.050781 19.9375 65.050781 20.382812 70.046875 C 21.390625 81.347656 27.585938 90.140625 34.441406 98.671875 C 42.203125 108.324219 51.921875 115.5 62.25 122.03125 C 64.617188 123.523438 66.453125 125.46875 66.546875 128.589844 C 66.6875 133.355469 62.960938 136.269531 58.433594 134.609375 C 44.160156 129.382812 31.972656 121.304688 22.378906 109.222656 C 15.582031 100.652344 9.488281 91.832031 6.863281 81.089844 C 4.601562 71.832031 4.5 62.671875 9.035156 53.878906 C 14.519531 43.246094 25.972656 37.832031 37.671875 40.3125 C 47.410156 42.375 55.574219 47.425781 63.144531 53.554688 C 67.382812 56.980469 71.398438 60.699219 75.351562 64.453125 C 77.144531 66.152344 77.820312 66.136719 78.691406 63.6875 C 82.390625 53.289062 86.171875 42.910156 91.761719 33.320312 C 97.570312 23.355469 104.425781 14.332031 114.972656 8.957031 C 129.417969 1.601562 144.378906 7.476562 150.523438 22.558594 C 153.503906 29.867188 154.402344 37.472656 154.644531 44.9375 Z M 154.644531 44.9375 " fill-opacity="1" fill-rule="nonzero"/></g></svg>